<svg width="32" height="32" fill="none" xmlns="http://www.w3.org/2000/svg"><g clip-path="url(#a)"><path d="M6.667 3C3.3 5.433.933 9.1.233 13.333h6.434V3zm25.1 10.333C30.5 5.767 23.933 0 16 0c-1.367 0-2.733.167-4 .5v12.833h19.767zM.233 18.666C.933 22.9 3.3 26.566 6.667 29V18.666H.233zM12 31.5c1.267.333 2.633.5 4 .5 7.933 0 14.5-5.767 15.767-13.334H12V31.5z" fill="#F0263C"/><path d="M31.933 14.667a18.4 18.4 0 0 0-.166-1.334H12V.5c-.467.1-.9.267-1.333.4-.934.333-1.834.733-2.667 1.233-.467.267-.9.567-1.333.867v10.333H.233A18.204 18.204 0 0 0 0 16a17.85 17.85 0 0 0 .233 2.667h6.434V29c.433.3.866.6 1.333.867.833.5 1.733.9 2.667 1.233.433.167.866.3 1.333.4V18.667h19.767A18.222 18.222 0 0 0 32 16c0-.433-.033-.9-.067-1.333z" fill="#F0F0F0"/></g><defs><clipPath id="a"><path fill="#fff" d="M0 0h32v32H0z"/></clipPath></defs></svg>