<svg width="64" height="64" viewBox="0 0 64 64" fill="none" xmlns="http://www.w3.org/2000/svg">
<g clip-path="url(#clip0_199_10086)">
<path d="M32 64C49.6731 64 64 49.6731 64 32C64 14.3269 49.6731 0 32 0C14.3269 0 0 14.3269 0 32C0 49.6731 14.3269 64 32 64Z" fill="white"/>
<path d="M31.9997 25.3334C35.6663 25.3334 38.6663 28.3334 38.6663 32C38.6663 35.6667 35.6663 38.6667 31.9997 38.6667C28.333 38.6667 25.333 35.6667 25.333 32C25.333 28.3334 28.333 25.3334 31.9997 25.3334Z" fill="white"/>
<path d="M32 25.3333C35.6667 25.3333 38.6667 28.3333 38.6667 32C38.6667 35.6667 35.6667 38.6667 32 38.6667C28.3333 38.6667 25.3333 35.6667 25.3333 32C25.3333 28.3333 28.3333 25.3333 32 25.3333ZM32 24C27.6 24 24 27.6 24 32C24 36.4 27.6 40 32 40C36.4 40 40 36.4 40 32C40 27.6 36.4 24 32 24Z" fill="#231D9A"/>
<path d="M1.7998 21.3333H62.1331C57.7998 8.93333 45.9331 0 31.9998 0C18.0665 0 6.1998 8.93333 1.7998 21.3333Z" fill="#FF7700"/>
<path d="M62.1998 42.6666H1.7998C6.1998 55.0666 18.0665 64 31.9998 64C45.9331 64 57.7998 55.0666 62.1998 42.6666Z" fill="#005B13"/>
<path d="M35.9867 32.1163C36.0453 29.908 34.3027 28.0704 32.0944 28.0118C29.8862 27.9532 28.0485 29.6958 27.9899 31.9041C27.9313 34.1123 29.6739 35.95 31.8822 36.0086C34.0904 36.0672 35.9281 34.3246 35.9867 32.1163Z" fill="#231D9A"/>
</g>
<defs>
<clipPath id="clip0_199_10086">
<rect width="64" height="64" fill="white"/>
</clipPath>
</defs>
</svg>
