<svg width="34" height="34" viewBox="0 0 34 34" fill="none" xmlns="http://www.w3.org/2000/svg">
<g clip-path="url(#clip0_3223_71881)">
<path d="M17 34C26.3888 34 34 26.3888 34 17C34 7.61116 26.3888 0 17 0C7.61116 0 0 7.61116 0 17C0 26.3888 7.61116 34 17 34Z" fill="#231D9A"/>
<path d="M12.7504 10.7667L4.63996 5.34792C4.32121 5.70209 4.00246 6.05626 3.71912 6.41042L12.7858 12.4313V12.75H8.07537L2.12537 8.78334C1.91287 9.20834 1.70037 9.63334 1.48787 10.0583L5.52537 12.75H0.531624C0.425374 13.2104 0.319124 13.6708 0.248291 14.1667H14.167V0.247925C13.6712 0.318758 13.2108 0.425008 12.7504 0.531258V10.7667Z" fill="#F0F0F0"/>
<path d="M0.248291 19.8334C0.319124 20.3292 0.425374 20.7896 0.531624 21.25H5.52537L1.48787 23.9417C1.66496 24.3667 1.87746 24.7917 2.12537 25.2167L8.07537 21.25H12.7504V21.5334L3.68371 27.5542C3.96704 27.9438 4.28579 28.298 4.60454 28.6167L12.7504 23.2334V33.4688C13.2108 33.575 13.6712 33.6813 14.167 33.7521V22.2771V20.5771V19.8334H0.248291Z" fill="#F0F0F0"/>
<path d="M33.7527 14.1667C33.6819 13.6708 33.5757 13.2104 33.4694 12.75H28.4757L32.5132 10.0583C32.3007 9.63334 32.1236 9.20834 31.8757 8.78334L25.9257 12.75H21.2507V12.4667L30.3173 6.44584C30.034 6.05626 29.7152 5.70209 29.3965 5.38334L21.2507 10.7667V0.531258C20.7902 0.425008 20.3298 0.318758 19.834 0.247925V11.7229V13.4229V14.1667H33.7527Z" fill="#F0F0F0"/>
<path d="M19.834 19.8334V33.7521C20.3298 33.6813 20.7902 33.575 21.2507 33.4688V23.2334L29.3611 28.6521C29.6798 28.298 29.9986 27.9438 30.2819 27.5896L21.2507 21.5334V21.25H25.9257L31.8757 25.2167C32.0882 24.7917 32.3007 24.3667 32.5132 23.9417L28.4757 21.25H33.4694C33.5757 20.7896 33.6819 20.3292 33.7527 19.8334H19.834Z" fill="#F0F0F0"/>
<path d="M12.75 12.75V12.4666L3.68333 6.4458C3.08125 7.18955 2.58542 7.96872 2.125 8.7833L8.075 12.75H12.75Z" fill="#F0263C"/>
<path d="M31.875 8.7833C31.4146 7.96872 30.8833 7.15413 30.3167 6.4458L21.25 12.4666V12.75H25.925L31.875 8.7833Z" fill="#F0263C"/>
<path d="M2.125 25.2167C2.58542 26.0312 3.11667 26.8458 3.68333 27.5542L12.75 21.5333V21.25H8.075L2.125 25.2167Z" fill="#F0263C"/>
<path d="M21.25 21.25V21.5333L30.3167 27.5542C30.9187 26.8104 31.4146 26.0312 31.875 25.2167L25.925 21.25H21.25Z" fill="#F0263C"/>
<path d="M33.7521 14.1667H19.8333V13.4229V11.7229V0.247917C18.9125 0.0708333 17.9562 0 17 0C16.0437 0 15.0875 0.0708333 14.1667 0.247917V14.1667H0.247917C0.0708333 15.0875 0 16.0437 0 17C0 17.9562 0.0708333 18.9125 0.247917 19.8333H14.1667V33.7521C15.0875 33.8937 16.0437 34 17 34C17.9562 34 18.9125 33.9292 19.8333 33.7521V19.8333H33.7521C33.8937 18.9125 34 17.9562 34 17C34 16.0437 33.9292 15.0875 33.7521 14.1667Z" fill="#F0263C"/>
</g>
<defs>
<clipPath id="clip0_3223_71881">
<rect width="34" height="34" fill="white"/>
</clipPath>
</defs>
</svg>
